<svg width="147" height="21" viewBox="0 0 147 21" fill="none" xmlns="http://www.w3.org/2000/svg">
<path d="M13.2 21H7.56V5.97H0.45V0.899999H20.28V5.97H13.2V21ZM27.2822 21H21.6422V0.899999H27.2822V21ZM41.0236 21H32.6536L28.4536 0.899999H34.7536L36.4336 11.13L36.9736 15.66H37.3636L38.1736 11.13L40.8736 0.899999H49.3636L51.8236 11.13L52.5436 15.66H52.9336L53.5336 11.13L55.4236 0.899999H61.6036L57.0136 21H48.6436L46.5436 12.39L45.2236 6.09H44.8336L43.4236 12.39L41.0236 21ZM67.905 21H61.575L70.245 0.899999H78.315L87.015 21H80.535L79.005 17.28H69.465L67.905 21ZM72.765 9.39L71.595 12.21H76.935L75.765 9.39L74.445 6H74.055L72.765 9.39ZM93.2588 21H87.6188V0.899999H93.6188L99.1988 8.43L102.139 13.05H102.529L102.259 8.67V0.899999H107.899V21H101.899L95.9588 13.26L93.4088 9.3H93.0188L93.2588 13.14V21ZM114.839 21H108.509L117.179 0.899999H125.249L133.949 21H127.469L125.939 17.28H116.399L114.839 21ZM119.699 9.39L118.529 12.21H123.869L122.699 9.39L121.379 6H120.989L119.699 9.39Z" fill="white"/>
<path d="M146.062 21H138.742V15.24H146.062V21Z" fill="#44D125"/>
</svg>
