<svg width="1101" height="296" viewBox="0 0 1101 296" fill="none" xmlns="http://www.w3.org/2000/svg">
<rect width="1101" height="296" fill="url(#paint0_linear_457_206)"/>
<path d="M148 212H110.4V111.8H63V78H195.2V111.8H148V212ZM241.881 212H204.281V78H241.881V212ZM333.491 212H277.691L249.691 78H291.691L302.891 146.2L306.491 176.4H309.091L314.491 146.2L332.491 78H389.091L405.491 146.2L410.291 176.4H412.891L416.891 146.2L429.491 78H470.691L440.091 212H384.291L370.291 154.6L361.491 112.6H358.891L349.491 154.6L333.491 212ZM512.7 212H470.5L528.3 78H582.1L640.1 212H596.9L586.7 187.2H523.1L512.7 212ZM545.1 134.6L537.3 153.4H572.9L565.1 134.6L556.3 112H553.7L545.1 134.6ZM681.725 212H644.125V78H684.125L721.325 128.2L740.925 159H743.525L741.725 129.8V78H779.325V212H739.325L699.725 160.4L682.725 134H680.125L681.725 159.6V212ZM825.591 212H783.391L841.191 78H894.991L952.991 212H909.791L899.591 187.2H835.991L825.591 212ZM857.991 134.6L850.191 153.4H885.791L877.991 134.6L869.191 112H866.591L857.991 134.6Z" fill="white"/>
<path d="M1033.75 212H984.945V173.6H1033.75V212Z" fill="#44D125"/>
<defs>
<linearGradient id="paint0_linear_457_206" x1="0" y1="148" x2="1101" y2="148" gradientUnits="userSpaceOnUse">
<stop stop-opacity="0"/>
<stop offset="1"/>
</linearGradient>
</defs>
</svg>
